<svg xmlns="http://www.w3.org/2000/svg" id="sw-js-blob-svg" viewBox="0 0 110 110" version="1.1">
                    <defs> 
                        <linearGradient id="sw-gradient" x1="0" x2="1" y1="1" y2="0">
                            <stop id="stop1" stop-color="rgba(248, 55, 160.013, 1)" offset="0%"/>
                            <stop id="stop2" stop-color="rgba(207.131, 0, 255, 1)" offset="100%"/>
                        </linearGradient>
                    </defs>
                <path fill="url(#sw-gradient)" d="M27.1,-29.7C35.1,-25.6,41.6,-17,41.4,-8.7C41.1,-0.4,34.1,7.6,28.1,14.5C22.1,21.4,17,27.2,10.3,30.7C3.5,34.3,-5,35.7,-11.3,32.7C-17.6,29.7,-21.6,22.3,-25.7,15C-29.7,7.7,-33.8,0.5,-32.8,-6C-31.9,-12.4,-26,-18.2,-19.7,-22.6C-13.4,-27.1,-6.7,-30.2,1.4,-31.9C9.5,-33.6,19.1,-33.9,27.1,-29.7Z" width="100%" height="100%" transform="translate(50 50)" stroke-width="0" style="transition: all 0.3s ease 0s;"/>
              </svg>